<?xml version="1.0" encoding="UTF-8"?>
<svg id="Layer_1" xmlns="http://www.w3.org/2000/svg" version="1.1" viewBox="0 0 897.5 368.3">
  <!-- Generator: Adobe Illustrator 29.4.0, SVG Export Plug-In . SVG Version: 2.1.0 Build 152)  -->
  <defs>
    <style>
      .st0 {
        fill: #fff;
      }
    </style>
  </defs>
  <path class="st0" d="M132.8,182.6h35.2c13,0,20.1-6.8,20.1-19s-7.1-19.1-20.1-19.1h-28.4v98.3h-22.3v-117.5h51.6c27.1,0,41.6,15.5,41.6,38.3s-14.5,38.1-41.6,38.1h-34.3l-1.9-19.1h.1Z"/>
  <path class="st0" d="M216.7,125.4h20.8v117.5h-20.8s0-117.5,0-117.5Z"/>
  <path class="st0" d="M322.7,156.7v85.1h-20.1v-12.4c-5.6,8.2-14.5,14.4-26.7,14.4-17.7,0-29.7-10.4-29.7-30.7v-56.4h20.8v53c0,10.9,5.3,16.2,16,16.2s19-6.3,19-21.4v-47.7h20.8,0Z"/>
  <path class="st0" d="M327.5,215.8h20.3c1.2,10.7,6.6,14.5,19,14.5s16.8-3.8,16.8-10.2-3.8-9.1-16.7-11.2l-9.7-1.7c-18.3-3.1-27.9-11.2-27.9-25.7s12.5-25.7,35.3-25.7,37,11.4,37.6,28.9h-19.6c-.5-10.9-7.3-14-18-14s-14.8,3.8-14.8,9.9,4.9,8.7,14.2,10.4l10.7,1.6c20.5,3.6,29.5,11.2,29.5,25.9s-14,26.7-37.8,26.7-37.6-8.7-38.9-29.4Z"/>
  <path class="st0" d="M465.1,245.5c-35.3,0-58.7-24.4-58.7-61.4s23.4-61.4,58.7-61.4,58.6,24.4,58.6,61.4-23.4,61.4-58.6,61.4h-3v-19.6h3c21.4,0,35.5-15.8,35.5-41.7s-14-41.7-35.5-41.7-35.5,15.8-35.5,41.7,14,41.7,35.5,41.7v19.6Z"/>
  <path class="st0" d="M606.6,186.4v56.4h-20.8v-53c0-10.9-5.4-16.2-16-16.2s-19,6.3-19,21.4v47.7h-20.8v-85.1h20.1v12.2c5.4-8.1,14.5-14.2,26.6-14.2,17.8,0,29.9,10.4,29.9,30.7h0Z"/>
  <path class="st0" d="M619.2,192.2h55.8c-1.7-12-9.1-20.3-21.4-20.3s-19.3,6.3-21.3,20.3l-.2,14.5c1.5,15.2,10.1,21.9,22.1,21.9s16.3-4.6,19.5-12.2h20c-4.3,17.3-19.1,28.4-39.6,28.4s-42.4-17.3-42.4-44.5,16.8-44.5,42.1-44.5,42.1,19,42.1,46v4.9h-72.1l-4.6-14.5h0Z"/>
  <path class="st0" d="M738.2,195.5c18.6,0,32.7-13.7,32.7-31.8s-14-32.2-32.7-32.2-32.7,13.9-32.7,32.2,14.2,31.8,32.7,31.8l11.7,7.4-11.7,1.5c-23.6,0-42.1-18.1-42.1-40.8s18.5-40.9,42.1-40.9,42.1,18,42.1,40.9-18.3,40.8-42.1,40.8l-11-1.4,11-7.5ZM728.5,160.7h11.9c3.6,0,5.8-2,5.8-5.3s-2.1-5.1-6.1-5.1h-8.7v34h-9.6v-42.2h19.1c9.4,0,15.2,4.5,15.2,12.2s-1.8,7.8-5.9,9.7c3.6,1.7,4.8,4.8,5,8.7l.5,5.8c.2,2.6.7,4.3,1.8,5.8h-10.1c-1-1.5-1.3-3.3-1.5-5.8l-.3-4.5c-.3-4.1-1.5-5.4-5.3-5.4h-9.9l-1.9-7.9Z"/>
</svg>